<svg width="13" height="13" viewBox="0 0 13 13" fill="none" xmlns="http://www.w3.org/2000/svg">
<path d="M12.285 0H0.720417C0.319583 0 0 0.319583 0 0.720417V12.285C0 12.6804 0.319583 13 0.720417 13H6.94417V7.96792H5.24875V6.00708H6.94417V4.56083C6.94417 2.88167 7.96792 1.96625 9.46833 1.96625C10.1888 1.96625 10.8008 2.02042 10.985 2.04208V3.79708H9.945C9.1325 3.79708 8.97 4.18708 8.97 4.75042V6.00167H10.9146L10.66 7.9625H8.97V12.9946H12.285C12.6804 12.9946 13 12.675 13 12.2742V0.715C13 0.319583 12.6804 0 12.285 0Z" fill="#F1EDDD"/>
</svg>
