<svg width="14" height="14" viewBox="0 0 14 14" fill="none" xmlns="http://www.w3.org/2000/svg">
<g clip-path="url(#clip0_1_7844)">
<path fill-rule="evenodd" clip-rule="evenodd" d="M0.891539 10.1373C0.414254 9.19546 0.140625 8.13272 0.140625 7C0.140625 5.86726 0.414254 4.80454 0.891539 3.86271C2.04334 1.57183 4.40425 0 7.14062 0C9.03063 0 10.6088 0.693629 11.8243 1.82637L9.81968 3.83091C9.08788 3.14363 8.17151 2.78726 7.14062 2.78726C5.32063 2.78726 3.77425 4.01546 3.22062 5.67C3.08063 6.09 2.99788 6.53543 2.99788 7C2.99788 7.46454 3.08063 7.91 3.22062 8.33L3.21234 8.33634H3.22062C3.77425 9.99091 5.32063 11.2191 7.14062 11.2191C8.08243 11.2191 8.87788 10.9645 9.50151 10.5445C10.2461 10.0482 10.7424 9.31 10.9079 8.43817H7.14062V5.72726H13.7333C13.8161 6.18546 13.8606 6.66271 13.8606 7.15909C13.8606 9.29089 13.097 11.0854 11.7733 12.3073C10.6152 13.3763 9.03063 14 7.14062 14C4.40425 14 2.04334 12.4282 0.891539 10.1436V10.1373Z" fill="#F1EDDD"/>
</g>
<defs>
<clipPath id="clip0_1_7844">
<rect width="14" height="14" fill="white"/>
</clipPath>
</defs>
</svg>
