<svg width="13" height="16" viewBox="0 0 13 16" fill="none" xmlns="http://www.w3.org/2000/svg">
<path d="M6.41035 3.87109C7.24214 3.87109 7.97184 3.52603 8.59942 2.83589C9.227 2.14575 9.54081 1.34324 9.54081 0.428362C9.54081 0.327882 9.53333 0.185095 9.51839 0C9.40881 0.0158653 9.32663 0.0290863 9.27184 0.0396632C8.50479 0.156008 7.82988 0.555284 7.24712 1.23747C6.66437 1.91968 6.373 2.64948 6.373 3.42688C6.373 3.51677 6.38544 3.66486 6.41035 3.87109ZM9.39137 16C9.9841 16 10.6391 15.569 11.3563 14.707C12.0736 13.845 12.6214 12.8323 13 11.6688C11.5904 10.8967 10.8856 9.7888 10.8856 8.34506C10.8856 7.13932 11.4559 6.10809 12.5966 5.25137C11.8046 4.19897 10.7586 3.67277 9.45862 3.67277C8.91072 3.67277 8.41016 3.76003 7.9569 3.93455L7.673 4.04561L7.29195 4.20426C7.04291 4.30474 6.81628 4.355 6.61207 4.355C6.45268 4.355 6.24347 4.29681 5.98449 4.18046L5.6931 4.05354L5.41667 3.93455C5.01321 3.75475 4.57988 3.66484 4.11667 3.66484C2.87644 3.66484 1.88028 4.10907 1.12816 4.99752C0.376049 5.88596 0 7.05735 0 8.51165C0 10.5582 0.602677 12.4489 1.80805 14.1834C2.64483 15.3945 3.40939 16 4.10172 16C4.3956 16 4.68698 15.9392 4.97586 15.8175L5.34195 15.6589L5.63334 15.5478C6.04177 15.3945 6.41781 15.3178 6.76149 15.3178C7.12509 15.3178 7.54349 15.4156 8.01667 15.6113L8.24828 15.7065C8.7314 15.9022 9.11246 16 9.39137 16Z" fill="#F1EDDD"/>
</svg>
